<svg width="24" height="24" viewBox="0 0 24 24" fill="none" xmlns="http://www.w3.org/2000/svg">
<path d="M21.2287 18.3882C20.8828 19.1873 20.4734 19.9228 19.999 20.5991C19.3524 21.521 18.823 22.1591 18.415 22.5134C17.7826 23.0951 17.1049 23.393 16.3793 23.4099C15.8583 23.4099 15.2301 23.2617 14.4988 22.961C13.7651 22.6617 13.0908 22.5134 12.4743 22.5134C11.8277 22.5134 11.1343 22.6617 10.3925 22.961C9.64967 23.2617 9.05122 23.4184 8.59367 23.4339C7.89781 23.4635 7.20421 23.1572 6.51188 22.5134C6.07 22.128 5.51729 21.4673 4.85518 20.5313C4.14478 19.5318 3.56073 18.3727 3.10318 17.0513C2.61315 15.624 2.36751 14.2419 2.36751 12.9038C2.36751 11.3711 2.69871 10.0491 3.36209 8.94128C3.88346 8.05145 4.57706 7.34952 5.44515 6.83422C6.31325 6.31893 7.25122 6.05634 8.26134 6.03954C8.81405 6.03954 9.53885 6.2105 10.4396 6.5465C11.3377 6.88363 11.9144 7.0546 12.1673 7.0546C12.3563 7.0546 12.997 6.85469 14.083 6.45615C15.1101 6.08655 15.9769 5.93352 16.687 5.9938C18.6113 6.14909 20.0569 6.90763 21.0183 8.27422C19.2974 9.31695 18.4461 10.7774 18.463 12.651C18.4786 14.1103 19.008 15.3247 20.0484 16.289C20.52 16.7365 21.0466 17.0824 21.6324 17.328C21.5054 17.6965 21.3713 18.0494 21.2287 18.3882ZM16.8155 1.02213C16.8155 2.16595 16.3976 3.23394 15.5647 4.22246C14.5595 5.39761 13.3437 6.07667 12.0252 5.96952C12.0084 5.83229 11.9987 5.68787 11.9987 5.5361C11.9987 4.43803 12.4767 3.26288 13.3256 2.30203C13.7494 1.81554 14.2884 1.41103 14.9421 1.08834C15.5943 0.770467 16.2113 0.594674 16.7915 0.564575C16.8084 0.717483 16.8155 0.870406 16.8155 1.02211V1.02213Z" fill="white"/>
</svg>
