<svg width="24" height="23" viewBox="0 0 24 23" fill="none" xmlns="http://www.w3.org/2000/svg">
<g id="instagram logo">
<g id="Group">
<path id="Vector" d="M16.4647 0H7.83968C3.87074 0 0.652176 3.21856 0.652176 7.1875V15.8125C0.652176 19.7814 3.87074 23 7.83968 23H16.4647C20.4336 23 23.6522 19.7814 23.6522 15.8125V7.1875C23.6522 3.21856 20.4336 0 16.4647 0ZM21.4959 15.8125C21.4959 18.5869 19.239 20.8438 16.4647 20.8438H7.83968C5.0653 20.8438 2.80843 18.5869 2.80843 15.8125V7.1875C2.80843 4.41313 5.0653 2.15625 7.83968 2.15625H16.4647C19.239 2.15625 21.4959 4.41313 21.4959 7.1875V15.8125Z" fill="white"/>
<path id="Vector_2" d="M12.1522 5.75C8.97674 5.75 6.40218 8.32456 6.40218 11.5C6.40218 14.6754 8.97674 17.25 12.1522 17.25C15.3276 17.25 17.9022 14.6754 17.9022 11.5C17.9022 8.32456 15.3276 5.75 12.1522 5.75ZM12.1522 15.0938C10.1713 15.0938 8.55843 13.4809 8.55843 11.5C8.55843 9.51769 10.1713 7.90625 12.1522 7.90625C14.1331 7.90625 15.7459 9.51769 15.7459 11.5C15.7459 13.4809 14.1331 15.0938 12.1522 15.0938Z" fill="white"/>
<path id="Vector_3" d="M18.3334 6.08492C18.7566 6.08492 19.0996 5.74189 19.0996 5.31874C19.0996 4.89558 18.7566 4.55255 18.3334 4.55255C17.9102 4.55255 17.5672 4.89558 17.5672 5.31874C17.5672 5.74189 17.9102 6.08492 18.3334 6.08492Z" fill="white"/>
</g>
</g>
</svg>
